<svg xmlns="http://www.w3.org/2000/svg" viewBox="0 0 108 108" width="512" height="512">
    <rect width="108" height="108" fill="#121212"/>
    <g>
        <path
            d="M 54,20 C 30,20 20,40 20,54 C 20,60 25,64 30,64 C 35,64 38,60 42,60 C 46,60 50,64 54,64 C 58,64 62,60 66,60 C 70,60 73,64 78,64 C 83,64 88,60 88,54 C 88,40 78,20 54,20 Z"
            fill="#8E2DE2" fill-opacity="0.2" />
            
        <path
            d="M 54,22 C 32,22 23,41 23,53 C 23,58 27,62 31,62 C 35,62 38,58 42,58 C 45,58 49,62 54,62 C 59,62 63,58 66,58 C 70,58 73,62 77,62 C 81,62 85,58 85,53 C 85,41 76,22 54,22 Z"
            fill="#8E2DE2" fill-opacity="0.53" />

        <defs>
            <linearGradient id="grad1" x1="26" y1="24" x2="82" y2="60" gradientUnits="userSpaceOnUse">
                <stop offset="0" stop-color="#8E2DE2" />
                <stop offset="1" stop-color="#00A4DC" />
            </linearGradient>
        </defs>
        <path
            d="M 54,24 C 34,24 26,42 26,52 C 26,56 29,60 32,60 C 35,60 38,56 42,56 C 45,56 48,60 54,60 C 60,60 63,56 66,56 C 70,56 73,60 76,60 C 79,60 82,56 82,52 C 82,42 74,24 54,24 Z"
            fill="url(#grad1)" />

        <path
            d="M 32,60 C 30,70 24,80 28,95"
            stroke="#8E2DE2" stroke-width="3.5" stroke-linecap="round" fill="none"/>
        <path
            d="M 42,56 C 40,75 38,82 43,90"
            stroke="#B83DE2" stroke-width="3.5" stroke-linecap="round" fill="none"/>
        <path
            d="M 54,60 C 54,75 52,85 54,98"
            stroke="#EB4BE2" stroke-width="4" stroke-linecap="round" fill="none"/>
        <path
            d="M 66,56 C 68,75 70,82 65,90"
            stroke="#6BB2E0" stroke-width="3.5" stroke-linecap="round" fill="none"/>
        <path
            d="M 76,60 C 78,70 84,80 80,95"
            stroke="#00A4DC" stroke-width="3.5" stroke-linecap="round" fill="none"/>

        <path
            d="M 54,34 L 54,48 C 52,46 48,46 46,48 C 43,50 43,54 45,56 C 47,59 51,59 54,57 C 57,55 58,52 58,48 L 58,38 L 65,38 L 65,34 L 54,34 Z"
            fill="#FFFFFF"/>
    </g>
</svg>
